solid games/v0x3l-666ax
  facet normal 0.000000e+0 0.000000e+0 1.000000e+0
    outer loop
      vertex -1.250000e+1 -1.250000e+1 0.000000e+0
      vertex -5.000000e-1 -1.250000e+1 0.000000e+0
      vertex -5.000000e-1 -5.000000e-1 0.000000e+0
    endloop
  endfacet
  facet normal 0.000000e+0 0.000000e+0 1.000000e+0
    outer loop
      vertex -1.250000e+1 -1.250000e+1 0.000000e+0
      vertex -5.000000e-1 -5.000000e-1 0.000000e+0
      vertex -1.250000e+1 -5.000000e-1 0.000000e+0
    endloop
  endfacet
  facet normal 0.000000e+0 0.000000e+0 1.000000e+0
    outer loop
      vertex -1.250000e+1 -1.250000e+1 1.200000e+1
      vertex -5.000000e-1 -1.250000e+1 1.200000e+1
      vertex -5.000000e-1 -5.000000e-1 1.200000e+1
    endloop
  endfacet
  facet normal 0.000000e+0 0.000000e+0 1.000000e+0
    outer loop
      vertex -1.250000e+1 -1.250000e+1 1.200000e+1
      vertex -5.000000e-1 -5.000000e-1 1.200000e+1
      vertex -1.250000e+1 -5.000000e-1 1.200000e+1
    endloop
  endfacet
  facet normal -1.000000e+0 0.000000e+0 0.000000e+0
    outer loop
      vertex -1.250000e+1 -1.250000e+1 0.000000e+0
      vertex -1.250000e+1 -1.250000e+1 1.200000e+1
      vertex -1.250000e+1 -5.000000e-1 1.200000e+1
    endloop
  endfacet
  facet normal -1.000000e+0 0.000000e+0 0.000000e+0
    outer loop
      vertex -1.250000e+1 -1.250000e+1 0.000000e+0
      vertex -1.250000e+1 -5.000000e-1 1.200000e+1
      vertex -1.250000e+1 -5.000000e-1 0.000000e+0
    endloop
  endfacet
  facet normal -1.000000e+0 0.000000e+0 0.000000e+0
    outer loop
      vertex -5.000000e-1 -1.250000e+1 0.000000e+0
      vertex -5.000000e-1 -1.250000e+1 1.200000e+1
      vertex -5.000000e-1 -5.000000e-1 1.200000e+1
    endloop
  endfacet
  facet normal -1.000000e+0 0.000000e+0 0.000000e+0
    outer loop
      vertex -5.000000e-1 -1.250000e+1 0.000000e+0
      vertex -5.000000e-1 -5.000000e-1 1.200000e+1
      vertex -5.000000e-1 -5.000000e-1 0.000000e+0
    endloop
  endfacet
  facet normal 0.000000e+0 -1.000000e+0 0.000000e+0
    outer loop
      vertex -1.250000e+1 -1.250000e+1 0.000000e+0
      vertex -5.000000e-1 -1.250000e+1 0.000000e+0
      vertex -5.000000e-1 -1.250000e+1 1.200000e+1
    endloop
  endfacet
  facet normal 0.000000e+0 -1.000000e+0 0.000000e+0
    outer loop
      vertex -1.250000e+1 -1.250000e+1 0.000000e+0
      vertex -5.000000e-1 -1.250000e+1 1.200000e+1
      vertex -1.250000e+1 -1.250000e+1 1.200000e+1
    endloop
  endfacet
  facet normal 0.000000e+0 -1.000000e+0 0.000000e+0
    outer loop
      vertex -1.250000e+1 -5.000000e-1 0.000000e+0
      vertex -5.000000e-1 -5.000000e-1 0.000000e+0
      vertex -5.000000e-1 -5.000000e-1 1.200000e+1
    endloop
  endfacet
  facet normal 0.000000e+0 -1.000000e+0 0.000000e+0
    outer loop
      vertex -1.250000e+1 -5.000000e-1 0.000000e+0
      vertex -5.000000e-1 -5.000000e-1 1.200000e+1
      vertex -1.250000e+1 -5.000000e-1 1.200000e+1
    endloop
  endfacet
  facet normal 0.000000e+0 0.000000e+0 1.000000e+0
    outer loop
      vertex -1.250000e+1 -1.250000e+1 1.300000e+1
      vertex -5.000000e-1 -1.250000e+1 1.300000e+1
      vertex -5.000000e-1 -5.000000e-1 1.300000e+1
    endloop
  endfacet
  facet normal 0.000000e+0 0.000000e+0 1.000000e+0
    outer loop
      vertex -1.250000e+1 -1.250000e+1 1.300000e+1
      vertex -5.000000e-1 -5.000000e-1 1.300000e+1
      vertex -1.250000e+1 -5.000000e-1 1.300000e+1
    endloop
  endfacet
  facet normal 0.000000e+0 0.000000e+0 1.000000e+0
    outer loop
      vertex -1.250000e+1 -1.250000e+1 2.500000e+1
      vertex -5.000000e-1 -1.250000e+1 2.500000e+1
      vertex -5.000000e-1 -5.000000e-1 2.500000e+1
    endloop
  endfacet
  facet normal 0.000000e+0 0.000000e+0 1.000000e+0
    outer loop
      vertex -1.250000e+1 -1.250000e+1 2.500000e+1
      vertex -5.000000e-1 -5.000000e-1 2.500000e+1
      vertex -1.250000e+1 -5.000000e-1 2.500000e+1
    endloop
  endfacet
  facet normal -1.000000e+0 0.000000e+0 0.000000e+0
    outer loop
      vertex -1.250000e+1 -1.250000e+1 1.300000e+1
      vertex -1.250000e+1 -1.250000e+1 2.500000e+1
      vertex -1.250000e+1 -5.000000e-1 2.500000e+1
    endloop
  endfacet
  facet normal -1.000000e+0 0.000000e+0 0.000000e+0
    outer loop
      vertex -1.250000e+1 -1.250000e+1 1.300000e+1
      vertex -1.250000e+1 -5.000000e-1 2.500000e+1
      vertex -1.250000e+1 -5.000000e-1 1.300000e+1
    endloop
  endfacet
  facet normal -1.000000e+0 0.000000e+0 0.000000e+0
    outer loop
      vertex -5.000000e-1 -1.250000e+1 1.300000e+1
      vertex -5.000000e-1 -1.250000e+1 2.500000e+1
      vertex -5.000000e-1 -5.000000e-1 2.500000e+1
    endloop
  endfacet
  facet normal -1.000000e+0 0.000000e+0 0.000000e+0
    outer loop
      vertex -5.000000e-1 -1.250000e+1 1.300000e+1
      vertex -5.000000e-1 -5.000000e-1 2.500000e+1
      vertex -5.000000e-1 -5.000000e-1 1.300000e+1
    endloop
  endfacet
  facet normal 0.000000e+0 -1.000000e+0 0.000000e+0
    outer loop
      vertex -1.250000e+1 -1.250000e+1 1.300000e+1
      vertex -5.000000e-1 -1.250000e+1 1.300000e+1
      vertex -5.000000e-1 -1.250000e+1 2.500000e+1
    endloop
  endfacet
  facet normal 0.000000e+0 -1.000000e+0 0.000000e+0
    outer loop
      vertex -1.250000e+1 -1.250000e+1 1.300000e+1
      vertex -5.000000e-1 -1.250000e+1 2.500000e+1
      vertex -1.250000e+1 -1.250000e+1 2.500000e+1
    endloop
  endfacet
  facet normal 0.000000e+0 -1.000000e+0 0.000000e+0
    outer loop
      vertex -1.250000e+1 -5.000000e-1 1.300000e+1
      vertex -5.000000e-1 -5.000000e-1 1.300000e+1
      vertex -5.000000e-1 -5.000000e-1 2.500000e+1
    endloop
  endfacet
  facet normal 0.000000e+0 -1.000000e+0 0.000000e+0
    outer loop
      vertex -1.250000e+1 -5.000000e-1 1.300000e+1
      vertex -5.000000e-1 -5.000000e-1 2.500000e+1
      vertex -1.250000e+1 -5.000000e-1 2.500000e+1
    endloop
  endfacet
  facet normal 0.000000e+0 0.000000e+0 1.000000e+0
    outer loop
      vertex -1.250000e+1 5.000000e-1 0.000000e+0
      vertex -5.000000e-1 5.000000e-1 0.000000e+0
      vertex -5.000000e-1 1.250000e+1 0.000000e+0
    endloop
  endfacet
  facet normal 0.000000e+0 0.000000e+0 1.000000e+0
    outer loop
      vertex -1.250000e+1 5.000000e-1 0.000000e+0
      vertex -5.000000e-1 1.250000e+1 0.000000e+0
      vertex -1.250000e+1 1.250000e+1 0.000000e+0
    endloop
  endfacet
  facet normal 0.000000e+0 0.000000e+0 1.000000e+0
    outer loop
      vertex -1.250000e+1 5.000000e-1 1.200000e+1
      vertex -5.000000e-1 5.000000e-1 1.200000e+1
      vertex -5.000000e-1 1.250000e+1 1.200000e+1
    endloop
  endfacet
  facet normal 0.000000e+0 0.000000e+0 1.000000e+0
    outer loop
      vertex -1.250000e+1 5.000000e-1 1.200000e+1
      vertex -5.000000e-1 1.250000e+1 1.200000e+1
      vertex -1.250000e+1 1.250000e+1 1.200000e+1
    endloop
  endfacet
  facet normal -1.000000e+0 0.000000e+0 0.000000e+0
    outer loop
      vertex -1.250000e+1 5.000000e-1 0.000000e+0
      vertex -1.250000e+1 5.000000e-1 1.200000e+1
      vertex -1.250000e+1 1.250000e+1 1.200000e+1
    endloop
  endfacet
  facet normal -1.000000e+0 0.000000e+0 0.000000e+0
    outer loop
      vertex -1.250000e+1 5.000000e-1 0.000000e+0
      vertex -1.250000e+1 1.250000e+1 1.200000e+1
      vertex -1.250000e+1 1.250000e+1 0.000000e+0
    endloop
  endfacet
  facet normal -1.000000e+0 0.000000e+0 0.000000e+0
    outer loop
      vertex -5.000000e-1 5.000000e-1 0.000000e+0
      vertex -5.000000e-1 5.000000e-1 1.200000e+1
      vertex -5.000000e-1 1.250000e+1 1.200000e+1
    endloop
  endfacet
  facet normal -1.000000e+0 0.000000e+0 0.000000e+0
    outer loop
      vertex -5.000000e-1 5.000000e-1 0.000000e+0
      vertex -5.000000e-1 1.250000e+1 1.200000e+1
      vertex -5.000000e-1 1.250000e+1 0.000000e+0
    endloop
  endfacet
  facet normal 0.000000e+0 -1.000000e+0 0.000000e+0
    outer loop
      vertex -1.250000e+1 5.000000e-1 0.000000e+0
      vertex -5.000000e-1 5.000000e-1 0.000000e+0
      vertex -5.000000e-1 5.000000e-1 1.200000e+1
    endloop
  endfacet
  facet normal 0.000000e+0 -1.000000e+0 0.000000e+0
    outer loop
      vertex -1.250000e+1 5.000000e-1 0.000000e+0
      vertex -5.000000e-1 5.000000e-1 1.200000e+1
      vertex -1.250000e+1 5.000000e-1 1.200000e+1
    endloop
  endfacet
  facet normal 0.000000e+0 -1.000000e+0 0.000000e+0
    outer loop
      vertex -1.250000e+1 1.250000e+1 0.000000e+0
      vertex -5.000000e-1 1.250000e+1 0.000000e+0
      vertex -5.000000e-1 1.250000e+1 1.200000e+1
    endloop
  endfacet
  facet normal 0.000000e+0 -1.000000e+0 0.000000e+0
    outer loop
      vertex -1.250000e+1 1.250000e+1 0.000000e+0
      vertex -5.000000e-1 1.250000e+1 1.200000e+1
      vertex -1.250000e+1 1.250000e+1 1.200000e+1
    endloop
  endfacet
  facet normal 0.000000e+0 0.000000e+0 1.000000e+0
    outer loop
      vertex -1.250000e+1 5.000000e-1 1.300000e+1
      vertex -5.000000e-1 5.000000e-1 1.300000e+1
      vertex -5.000000e-1 1.250000e+1 1.300000e+1
    endloop
  endfacet
  facet normal 0.000000e+0 0.000000e+0 1.000000e+0
    outer loop
      vertex -1.250000e+1 5.000000e-1 1.300000e+1
      vertex -5.000000e-1 1.250000e+1 1.300000e+1
      vertex -1.250000e+1 1.250000e+1 1.300000e+1
    endloop
  endfacet
  facet normal 0.000000e+0 0.000000e+0 1.000000e+0
    outer loop
      vertex -1.250000e+1 5.000000e-1 2.500000e+1
      vertex -5.000000e-1 5.000000e-1 2.500000e+1
      vertex -5.000000e-1 1.250000e+1 2.500000e+1
    endloop
  endfacet
  facet normal 0.000000e+0 0.000000e+0 1.000000e+0
    outer loop
      vertex -1.250000e+1 5.000000e-1 2.500000e+1
      vertex -5.000000e-1 1.250000e+1 2.500000e+1
      vertex -1.250000e+1 1.250000e+1 2.500000e+1
    endloop
  endfacet
  facet normal -1.000000e+0 0.000000e+0 0.000000e+0
    outer loop
      vertex -1.250000e+1 5.000000e-1 1.300000e+1
      vertex -1.250000e+1 5.000000e-1 2.500000e+1
      vertex -1.250000e+1 1.250000e+1 2.500000e+1
    endloop
  endfacet
  facet normal -1.000000e+0 0.000000e+0 0.000000e+0
    outer loop
      vertex -1.250000e+1 5.000000e-1 1.300000e+1
      vertex -1.250000e+1 1.250000e+1 2.500000e+1
      vertex -1.250000e+1 1.250000e+1 1.300000e+1
    endloop
  endfacet
  facet normal -1.000000e+0 0.000000e+0 0.000000e+0
    outer loop
      vertex -5.000000e-1 5.000000e-1 1.300000e+1
      vertex -5.000000e-1 5.000000e-1 2.500000e+1
      vertex -5.000000e-1 1.250000e+1 2.500000e+1
    endloop
  endfacet
  facet normal -1.000000e+0 0.000000e+0 0.000000e+0
    outer loop
      vertex -5.000000e-1 5.000000e-1 1.300000e+1
      vertex -5.000000e-1 1.250000e+1 2.500000e+1
      vertex -5.000000e-1 1.250000e+1 1.300000e+1
    endloop
  endfacet
  facet normal 0.000000e+0 -1.000000e+0 0.000000e+0
    outer loop
      vertex -1.250000e+1 5.000000e-1 1.300000e+1
      vertex -5.000000e-1 5.000000e-1 1.300000e+1
      vertex -5.000000e-1 5.000000e-1 2.500000e+1
    endloop
  endfacet
  facet normal 0.000000e+0 -1.000000e+0 0.000000e+0
    outer loop
      vertex -1.250000e+1 5.000000e-1 1.300000e+1
      vertex -5.000000e-1 5.000000e-1 2.500000e+1
      vertex -1.250000e+1 5.000000e-1 2.500000e+1
    endloop
  endfacet
  facet normal 0.000000e+0 -1.000000e+0 0.000000e+0
    outer loop
      vertex -1.250000e+1 1.250000e+1 1.300000e+1
      vertex -5.000000e-1 1.250000e+1 1.300000e+1
      vertex -5.000000e-1 1.250000e+1 2.500000e+1
    endloop
  endfacet
  facet normal 0.000000e+0 -1.000000e+0 0.000000e+0
    outer loop
      vertex -1.250000e+1 1.250000e+1 1.300000e+1
      vertex -5.000000e-1 1.250000e+1 2.500000e+1
      vertex -1.250000e+1 1.250000e+1 2.500000e+1
    endloop
  endfacet
  facet normal 0.000000e+0 0.000000e+0 1.000000e+0
    outer loop
      vertex 5.000000e-1 -1.250000e+1 0.000000e+0
      vertex 1.250000e+1 -1.250000e+1 0.000000e+0
      vertex 1.250000e+1 -5.000000e-1 0.000000e+0
    endloop
  endfacet
  facet normal 0.000000e+0 0.000000e+0 1.000000e+0
    outer loop
      vertex 5.000000e-1 -1.250000e+1 0.000000e+0
      vertex 1.250000e+1 -5.000000e-1 0.000000e+0
      vertex 5.000000e-1 -5.000000e-1 0.000000e+0
    endloop
  endfacet
  facet normal 0.000000e+0 0.000000e+0 1.000000e+0
    outer loop
      vertex 5.000000e-1 -1.250000e+1 1.200000e+1
      vertex 1.250000e+1 -1.250000e+1 1.200000e+1
      vertex 1.250000e+1 -5.000000e-1 1.200000e+1
    endloop
  endfacet
  facet normal 0.000000e+0 0.000000e+0 1.000000e+0
    outer loop
      vertex 5.000000e-1 -1.250000e+1 1.200000e+1
      vertex 1.250000e+1 -5.000000e-1 1.200000e+1
      vertex 5.000000e-1 -5.000000e-1 1.200000e+1
    endloop
  endfacet
  facet normal -1.000000e+0 0.000000e+0 0.000000e+0
    outer loop
      vertex 5.000000e-1 -1.250000e+1 0.000000e+0
      vertex 5.000000e-1 -1.250000e+1 1.200000e+1
      vertex 5.000000e-1 -5.000000e-1 1.200000e+1
    endloop
  endfacet
  facet normal -1.000000e+0 0.000000e+0 0.000000e+0
    outer loop
      vertex 5.000000e-1 -1.250000e+1 0.000000e+0
      vertex 5.000000e-1 -5.000000e-1 1.200000e+1
      vertex 5.000000e-1 -5.000000e-1 0.000000e+0
    endloop
  endfacet
  facet normal -1.000000e+0 0.000000e+0 0.000000e+0
    outer loop
      vertex 1.250000e+1 -1.250000e+1 0.000000e+0
      vertex 1.250000e+1 -1.250000e+1 1.200000e+1
      vertex 1.250000e+1 -5.000000e-1 1.200000e+1
    endloop
  endfacet
  facet normal -1.000000e+0 0.000000e+0 0.000000e+0
    outer loop
      vertex 1.250000e+1 -1.250000e+1 0.000000e+0
      vertex 1.250000e+1 -5.000000e-1 1.200000e+1
      vertex 1.250000e+1 -5.000000e-1 0.000000e+0
    endloop
  endfacet
  facet normal 0.000000e+0 -1.000000e+0 0.000000e+0
    outer loop
      vertex 5.000000e-1 -1.250000e+1 0.000000e+0
      vertex 1.250000e+1 -1.250000e+1 0.000000e+0
      vertex 1.250000e+1 -1.250000e+1 1.200000e+1
    endloop
  endfacet
  facet normal 0.000000e+0 -1.000000e+0 0.000000e+0
    outer loop
      vertex 5.000000e-1 -1.250000e+1 0.000000e+0
      vertex 1.250000e+1 -1.250000e+1 1.200000e+1
      vertex 5.000000e-1 -1.250000e+1 1.200000e+1
    endloop
  endfacet
  facet normal 0.000000e+0 -1.000000e+0 0.000000e+0
    outer loop
      vertex 5.000000e-1 -5.000000e-1 0.000000e+0
      vertex 1.250000e+1 -5.000000e-1 0.000000e+0
      vertex 1.250000e+1 -5.000000e-1 1.200000e+1
    endloop
  endfacet
  facet normal 0.000000e+0 -1.000000e+0 0.000000e+0
    outer loop
      vertex 5.000000e-1 -5.000000e-1 0.000000e+0
      vertex 1.250000e+1 -5.000000e-1 1.200000e+1
      vertex 5.000000e-1 -5.000000e-1 1.200000e+1
    endloop
  endfacet
  facet normal 0.000000e+0 0.000000e+0 1.000000e+0
    outer loop
      vertex 5.000000e-1 -1.250000e+1 1.300000e+1
      vertex 1.250000e+1 -1.250000e+1 1.300000e+1
      vertex 1.250000e+1 -5.000000e-1 1.300000e+1
    endloop
  endfacet
  facet normal 0.000000e+0 0.000000e+0 1.000000e+0
    outer loop
      vertex 5.000000e-1 -1.250000e+1 1.300000e+1
      vertex 1.250000e+1 -5.000000e-1 1.300000e+1
      vertex 5.000000e-1 -5.000000e-1 1.300000e+1
    endloop
  endfacet
  facet normal 0.000000e+0 0.000000e+0 1.000000e+0
    outer loop
      vertex 5.000000e-1 -1.250000e+1 2.500000e+1
      vertex 1.250000e+1 -1.250000e+1 2.500000e+1
      vertex 1.250000e+1 -5.000000e-1 2.500000e+1
    endloop
  endfacet
  facet normal 0.000000e+0 0.000000e+0 1.000000e+0
    outer loop
      vertex 5.000000e-1 -1.250000e+1 2.500000e+1
      vertex 1.250000e+1 -5.000000e-1 2.500000e+1
      vertex 5.000000e-1 -5.000000e-1 2.500000e+1
    endloop
  endfacet
  facet normal -1.000000e+0 0.000000e+0 0.000000e+0
    outer loop
      vertex 5.000000e-1 -1.250000e+1 1.300000e+1
      vertex 5.000000e-1 -1.250000e+1 2.500000e+1
      vertex 5.000000e-1 -5.000000e-1 2.500000e+1
    endloop
  endfacet
  facet normal -1.000000e+0 0.000000e+0 0.000000e+0
    outer loop
      vertex 5.000000e-1 -1.250000e+1 1.300000e+1
      vertex 5.000000e-1 -5.000000e-1 2.500000e+1
      vertex 5.000000e-1 -5.000000e-1 1.300000e+1
    endloop
  endfacet
  facet normal -1.000000e+0 0.000000e+0 0.000000e+0
    outer loop
      vertex 1.250000e+1 -1.250000e+1 1.300000e+1
      vertex 1.250000e+1 -1.250000e+1 2.500000e+1
      vertex 1.250000e+1 -5.000000e-1 2.500000e+1
    endloop
  endfacet
  facet normal -1.000000e+0 0.000000e+0 0.000000e+0
    outer loop
      vertex 1.250000e+1 -1.250000e+1 1.300000e+1
      vertex 1.250000e+1 -5.000000e-1 2.500000e+1
      vertex 1.250000e+1 -5.000000e-1 1.300000e+1
    endloop
  endfacet
  facet normal 0.000000e+0 -1.000000e+0 0.000000e+0
    outer loop
      vertex 5.000000e-1 -1.250000e+1 1.300000e+1
      vertex 1.250000e+1 -1.250000e+1 1.300000e+1
      vertex 1.250000e+1 -1.250000e+1 2.500000e+1
    endloop
  endfacet
  facet normal 0.000000e+0 -1.000000e+0 0.000000e+0
    outer loop
      vertex 5.000000e-1 -1.250000e+1 1.300000e+1
      vertex 1.250000e+1 -1.250000e+1 2.500000e+1
      vertex 5.000000e-1 -1.250000e+1 2.500000e+1
    endloop
  endfacet
  facet normal 0.000000e+0 -1.000000e+0 0.000000e+0
    outer loop
      vertex 5.000000e-1 -5.000000e-1 1.300000e+1
      vertex 1.250000e+1 -5.000000e-1 1.300000e+1
      vertex 1.250000e+1 -5.000000e-1 2.500000e+1
    endloop
  endfacet
  facet normal 0.000000e+0 -1.000000e+0 0.000000e+0
    outer loop
      vertex 5.000000e-1 -5.000000e-1 1.300000e+1
      vertex 1.250000e+1 -5.000000e-1 2.500000e+1
      vertex 5.000000e-1 -5.000000e-1 2.500000e+1
    endloop
  endfacet
  facet normal 0.000000e+0 0.000000e+0 1.000000e+0
    outer loop
      vertex 5.000000e-1 5.000000e-1 0.000000e+0
      vertex 1.250000e+1 5.000000e-1 0.000000e+0
      vertex 1.250000e+1 1.250000e+1 0.000000e+0
    endloop
  endfacet
  facet normal 0.000000e+0 0.000000e+0 1.000000e+0
    outer loop
      vertex 5.000000e-1 5.000000e-1 0.000000e+0
      vertex 1.250000e+1 1.250000e+1 0.000000e+0
      vertex 5.000000e-1 1.250000e+1 0.000000e+0
    endloop
  endfacet
  facet normal 0.000000e+0 0.000000e+0 1.000000e+0
    outer loop
      vertex 5.000000e-1 5.000000e-1 1.200000e+1
      vertex 1.250000e+1 5.000000e-1 1.200000e+1
      vertex 1.250000e+1 1.250000e+1 1.200000e+1
    endloop
  endfacet
  facet normal 0.000000e+0 0.000000e+0 1.000000e+0
    outer loop
      vertex 5.000000e-1 5.000000e-1 1.200000e+1
      vertex 1.250000e+1 1.250000e+1 1.200000e+1
      vertex 5.000000e-1 1.250000e+1 1.200000e+1
    endloop
  endfacet
  facet normal -1.000000e+0 0.000000e+0 0.000000e+0
    outer loop
      vertex 5.000000e-1 5.000000e-1 0.000000e+0
      vertex 5.000000e-1 5.000000e-1 1.200000e+1
      vertex 5.000000e-1 1.250000e+1 1.200000e+1
    endloop
  endfacet
  facet normal -1.000000e+0 0.000000e+0 0.000000e+0
    outer loop
      vertex 5.000000e-1 5.000000e-1 0.000000e+0
      vertex 5.000000e-1 1.250000e+1 1.200000e+1
      vertex 5.000000e-1 1.250000e+1 0.000000e+0
    endloop
  endfacet
  facet normal -1.000000e+0 0.000000e+0 0.000000e+0
    outer loop
      vertex 1.250000e+1 5.000000e-1 0.000000e+0
      vertex 1.250000e+1 5.000000e-1 1.200000e+1
      vertex 1.250000e+1 1.250000e+1 1.200000e+1
    endloop
  endfacet
  facet normal -1.000000e+0 0.000000e+0 0.000000e+0
    outer loop
      vertex 1.250000e+1 5.000000e-1 0.000000e+0
      vertex 1.250000e+1 1.250000e+1 1.200000e+1
      vertex 1.250000e+1 1.250000e+1 0.000000e+0
    endloop
  endfacet
  facet normal 0.000000e+0 -1.000000e+0 0.000000e+0
    outer loop
      vertex 5.000000e-1 5.000000e-1 0.000000e+0
      vertex 1.250000e+1 5.000000e-1 0.000000e+0
      vertex 1.250000e+1 5.000000e-1 1.200000e+1
    endloop
  endfacet
  facet normal 0.000000e+0 -1.000000e+0 0.000000e+0
    outer loop
      vertex 5.000000e-1 5.000000e-1 0.000000e+0
      vertex 1.250000e+1 5.000000e-1 1.200000e+1
      vertex 5.000000e-1 5.000000e-1 1.200000e+1
    endloop
  endfacet
  facet normal 0.000000e+0 -1.000000e+0 0.000000e+0
    outer loop
      vertex 5.000000e-1 1.250000e+1 0.000000e+0
      vertex 1.250000e+1 1.250000e+1 0.000000e+0
      vertex 1.250000e+1 1.250000e+1 1.200000e+1
    endloop
  endfacet
  facet normal 0.000000e+0 -1.000000e+0 0.000000e+0
    outer loop
      vertex 5.000000e-1 1.250000e+1 0.000000e+0
      vertex 1.250000e+1 1.250000e+1 1.200000e+1
      vertex 5.000000e-1 1.250000e+1 1.200000e+1
    endloop
  endfacet
  facet normal 0.000000e+0 0.000000e+0 1.000000e+0
    outer loop
      vertex 5.000000e-1 5.000000e-1 1.300000e+1
      vertex 1.250000e+1 5.000000e-1 1.300000e+1
      vertex 1.250000e+1 1.250000e+1 1.300000e+1
    endloop
  endfacet
  facet normal 0.000000e+0 0.000000e+0 1.000000e+0
    outer loop
      vertex 5.000000e-1 5.000000e-1 1.300000e+1
      vertex 1.250000e+1 1.250000e+1 1.300000e+1
      vertex 5.000000e-1 1.250000e+1 1.300000e+1
    endloop
  endfacet
  facet normal 0.000000e+0 0.000000e+0 1.000000e+0
    outer loop
      vertex 5.000000e-1 5.000000e-1 2.500000e+1
      vertex 1.250000e+1 5.000000e-1 2.500000e+1
      vertex 1.250000e+1 1.250000e+1 2.500000e+1
    endloop
  endfacet
  facet normal 0.000000e+0 0.000000e+0 1.000000e+0
    outer loop
      vertex 5.000000e-1 5.000000e-1 2.500000e+1
      vertex 1.250000e+1 1.250000e+1 2.500000e+1
      vertex 5.000000e-1 1.250000e+1 2.500000e+1
    endloop
  endfacet
  facet normal -1.000000e+0 0.000000e+0 0.000000e+0
    outer loop
      vertex 5.000000e-1 5.000000e-1 1.300000e+1
      vertex 5.000000e-1 5.000000e-1 2.500000e+1
      vertex 5.000000e-1 1.250000e+1 2.500000e+1
    endloop
  endfacet
  facet normal -1.000000e+0 0.000000e+0 0.000000e+0
    outer loop
      vertex 5.000000e-1 5.000000e-1 1.300000e+1
      vertex 5.000000e-1 1.250000e+1 2.500000e+1
      vertex 5.000000e-1 1.250000e+1 1.300000e+1
    endloop
  endfacet
  facet normal -1.000000e+0 0.000000e+0 0.000000e+0
    outer loop
      vertex 1.250000e+1 5.000000e-1 1.300000e+1
      vertex 1.250000e+1 5.000000e-1 2.500000e+1
      vertex 1.250000e+1 1.250000e+1 2.500000e+1
    endloop
  endfacet
  facet normal -1.000000e+0 0.000000e+0 0.000000e+0
    outer loop
      vertex 1.250000e+1 5.000000e-1 1.300000e+1
      vertex 1.250000e+1 1.250000e+1 2.500000e+1
      vertex 1.250000e+1 1.250000e+1 1.300000e+1
    endloop
  endfacet
  facet normal 0.000000e+0 -1.000000e+0 0.000000e+0
    outer loop
      vertex 5.000000e-1 5.000000e-1 1.300000e+1
      vertex 1.250000e+1 5.000000e-1 1.300000e+1
      vertex 1.250000e+1 5.000000e-1 2.500000e+1
    endloop
  endfacet
  facet normal 0.000000e+0 -1.000000e+0 0.000000e+0
    outer loop
      vertex 5.000000e-1 5.000000e-1 1.300000e+1
      vertex 1.250000e+1 5.000000e-1 2.500000e+1
      vertex 5.000000e-1 5.000000e-1 2.500000e+1
    endloop
  endfacet
  facet normal 0.000000e+0 -1.000000e+0 0.000000e+0
    outer loop
      vertex 5.000000e-1 1.250000e+1 1.300000e+1
      vertex 1.250000e+1 1.250000e+1 1.300000e+1
      vertex 1.250000e+1 1.250000e+1 2.500000e+1
    endloop
  endfacet
  facet normal 0.000000e+0 -1.000000e+0 0.000000e+0
    outer loop
      vertex 5.000000e-1 1.250000e+1 1.300000e+1
      vertex 1.250000e+1 1.250000e+1 2.500000e+1
      vertex 5.000000e-1 1.250000e+1 2.500000e+1
    endloop
  endfacet
endsolid games/v0x3l-666ax
